<svg width="375" height="414" viewBox="0 0 375 414" fill="none" xmlns="http://www.w3.org/2000/svg">
<path fill-rule="evenodd" clip-rule="evenodd" d="M220.453 21.7134L216.956 23.4836L218.346 23.84C219.657 24.1761 221.131 25.31 222.169 26.7815C222.512 27.2678 222.535 27.2584 222.555 26.6254C222.566 26.2547 222.918 24.6256 223.336 23.005C223.754 21.3848 224.063 20.0328 224.023 20.001C223.983 19.9689 222.376 20.7396 220.453 21.7134ZM174.89 20.7806C169.106 23.6178 169.307 23.4914 170.298 23.6707C171.685 23.9216 172.414 24.3444 173.733 25.6611L174.937 26.864L175.282 25.599C175.472 24.9032 175.782 23.606 175.97 22.7163C176.158 21.8266 176.381 20.8863 176.465 20.627C176.662 20.0188 176.39 20.0454 174.89 20.7806ZM148.674 37.7776V47.6536H151.425H154.175L154.261 44.3511L154.347 41.0486L155.489 40.9653L156.632 40.882L158.55 44.2678L160.468 47.6536H163.616C165.348 47.6536 166.765 47.5732 166.765 47.4751C166.765 47.377 166.163 46.376 165.426 45.251C164.69 44.126 163.662 42.533 163.141 41.7112L162.194 40.2171L163.45 39.1501C165.136 37.7186 165.624 36.6079 165.602 34.2557C165.579 31.8768 164.963 30.6224 163.298 29.5621C161.465 28.3945 160.365 28.2101 154.27 28.0494L148.674 27.9016V37.7776ZM170.521 28.1518C170.225 28.2572 170.138 30.4768 170.138 37.9706V47.6536H173.051H175.964V37.8135V27.9733L173.434 27.9946C172.043 28.0062 170.732 28.0771 170.521 28.1518ZM179.643 30.1258V32.2868H182.556H185.469V39.9702V47.6536H188.228H190.988V39.9702V32.2868H194.067H197.146L197.057 30.1975L196.967 28.1081L188.305 28.0364L179.643 27.965V30.1258ZM198.858 28.1532C198.746 28.2518 198.654 29.2224 198.654 30.3099V32.2868H202.64C205.13 32.2868 206.626 32.3895 206.626 32.5602C206.626 32.7106 204.786 35.2885 202.538 38.289C197.521 44.9844 197.734 44.6304 197.734 46.2878V47.6536H205.859H213.985V45.6316V43.6097H209.539C206.789 43.6097 205.093 43.5073 205.093 43.3412C205.093 43.1932 207.043 40.494 209.427 37.3428L213.761 31.6128L213.908 29.7931L214.054 27.9733H206.558C202.435 27.9733 198.97 28.0542 198.858 28.1532ZM217.962 28.165C217.958 28.282 217.923 32.7147 217.886 38.0157L217.817 47.6536H220.657H223.497L223.417 37.8809L223.337 28.1081L220.654 28.0302C219.178 27.9874 217.967 28.048 217.962 28.165ZM228.907 28.1532C228.794 28.2518 228.702 32.6799 228.702 37.9933V47.6536H231.615H234.528V44.5533V41.453L236.445 41.4497C239.376 41.4449 242.286 40.642 243.913 39.3892C245.528 38.1456 246.364 35.3734 245.848 32.9789C245.245 30.1837 243.193 28.6816 239.383 28.2467C236.804 27.9523 229.212 27.8844 228.907 28.1532ZM130.28 35.0038C122.609 38.4144 116.2 41.3214 116.038 41.4637C115.85 41.629 116.369 41.7226 117.475 41.7226C119.797 41.7226 123.548 42.8025 125.861 44.137C129.655 46.3258 133.287 50.1554 135.201 53.9836C136.189 55.9605 136.71 56.4938 136.722 55.5392C136.725 55.2798 137.559 52.3377 138.575 49.0015C140.538 42.5529 142.498 36.0501 143.614 32.2847C143.987 31.0232 144.392 29.719 144.511 29.3866C144.632 29.0541 144.617 28.7867 144.479 28.7926C144.341 28.7983 137.952 31.5934 130.28 35.0038ZM159.362 32.6559C160.249 33.3617 160.46 34.5126 159.882 35.4942C159.232 36.6008 158.472 36.906 156.236 36.9597L154.347 37.0047L154.258 34.481L154.17 31.9571L156.454 32.0587C158.123 32.1329 158.907 32.2938 159.362 32.6559ZM239.678 32.6416C240.538 33.3253 240.733 34.5438 240.178 35.7624C239.599 37.0346 238.729 37.4091 236.353 37.4091H234.528V34.6838V31.9582L236.801 32.0593C238.431 32.1315 239.244 32.296 239.678 32.6416Z" fill="#C52529"/>
<path d="M10.408 410.883C9.83813 410.883 9.37622 411.582 9.37622 412.441C9.37622 413.301 9.83813 414 10.408 414H373.929C374.521 414 375 413.314 375 412.463V412.433C375 411.569 374.525 410.883 373.929 410.883H10.408Z" fill="#444444"/>
<path d="M296.395 411.401C307.295 411.401 316.131 402.313 316.131 391.104C316.131 379.894 307.295 370.807 296.395 370.807C285.495 370.807 276.658 379.894 276.658 391.104C276.658 402.313 285.495 411.401 296.395 411.401Z" fill="#444444"/>
<path d="M122.089 391.104C122.089 402.329 130.925 411.396 141.825 411.396C152.726 411.396 161.562 402.329 161.562 391.104C161.562 379.878 152.726 370.811 141.825 370.811C130.925 370.811 122.089 379.895 122.089 391.104Z" fill="#444444"/>
<path d="M109.117 316.266H61.0875L61.0875 284.631C61.0858 281.972 61.608 279.338 62.6243 276.881C63.6405 274.424 65.1309 272.191 67.0103 270.31C68.8897 268.429 71.1212 266.937 73.5774 265.919C76.0335 264.901 78.6662 264.377 81.3249 264.377H109.117V316.266Z" fill="#474747"/>
<path d="M116.904 389.402H37.7075L36.5851 332.544C36.5688 331.556 36.7281 330.574 37.0557 329.642L53.3992 283.224C54.6641 279.623 58.2643 277.179 62.3178 277.179H116.904V389.402Z" fill="#981A1F"/>
<path d="M41.528 389.398H36.5852V370.124H41.528C42.3649 370.124 43.1675 370.457 43.7593 371.049C44.3511 371.641 44.6836 372.443 44.6836 373.28V386.233C44.6847 386.649 44.6039 387.06 44.4459 387.444C44.2878 387.828 44.0555 388.177 43.7624 388.471C43.4693 388.765 43.121 388.998 42.7376 389.157C42.3542 389.316 41.9431 389.398 41.528 389.398Z" fill="#444444"/>
<path d="M30.6453 309.548H28.1372V300.766C28.1406 297.297 29.5198 293.972 31.972 291.519C34.4243 289.066 37.7493 287.687 41.2172 287.684H62.5425V290.192H41.2172C38.4144 290.196 35.7274 291.311 33.7455 293.293C31.7636 295.275 30.6487 297.963 30.6453 300.766V309.548Z" fill="#333343"/>
<path d="M27.5977 327.648H31.716C34.3886 327.648 36.5552 325.481 36.5552 322.808V308.831C36.5552 306.158 34.3886 303.991 31.716 303.991H27.5977C24.9251 303.991 22.7585 306.158 22.7585 308.831V322.808C22.7585 325.481 24.9251 327.648 27.5977 327.648Z" fill="#333343"/>
<path d="M34.3018 322.812V308.831C34.3018 307.403 33.1441 306.245 31.716 306.245H27.5934C26.1653 306.245 25.0076 307.403 25.0076 308.831V322.812C25.0076 324.24 26.1653 325.398 27.5934 325.398H31.716C33.1441 325.398 34.3018 324.24 34.3018 322.812Z" fill="#E8E8E8"/>
<path d="M54.1118 329.802H95.3635C96.592 329.802 97.7702 329.314 98.6389 328.445C99.5075 327.576 99.9955 326.398 99.9955 325.169V291.237C99.9955 290.629 99.8757 290.027 99.6428 289.465C99.41 288.903 99.0688 288.392 98.6386 287.963C98.2084 287.533 97.6978 287.192 97.1358 286.96C96.5739 286.727 95.9716 286.608 95.3635 286.609H64.5154C63.524 286.608 62.5585 286.925 61.7612 287.514C60.9638 288.103 60.3767 288.933 60.0863 289.881L49.687 323.809C49.4744 324.502 49.4271 325.235 49.5489 325.949C49.6708 326.663 49.9585 327.339 50.3888 327.921C50.8191 328.504 51.3801 328.978 52.0267 329.305C52.6732 329.631 53.3874 329.802 54.1118 329.802Z" fill="#444444"/>
<path d="M55.3763 305.248L49.6867 323.814C49.4748 324.506 49.4282 325.238 49.5504 325.952C49.6727 326.665 49.9605 327.34 50.3907 327.923C50.8209 328.505 51.3816 328.978 52.0278 329.305C52.6739 329.631 53.3875 329.801 54.1114 329.802H95.3632C96.5917 329.802 97.7699 329.314 98.6385 328.445C99.5072 327.576 99.9952 326.398 99.9952 325.169V305.248H55.3763Z" fill="#E8E8E8"/>
<path d="M59.0632 329.802L55.6615 322.505C55.5409 322.281 55.339 322.111 55.0973 322.031C54.8557 321.951 54.5925 321.966 54.3618 322.074C54.131 322.182 53.9502 322.374 53.8563 322.61C53.7625 322.847 53.7627 323.111 53.857 323.347L56.8788 329.824L59.0632 329.802Z" fill="#333343"/>
<path d="M49.0308 384.96C46.9846 398.962 55.4413 411.012 68.953 411.392C71.0439 411.432 73.1354 411.35 75.2168 411.146C80.068 410.43 84.5598 408.17 88.0273 404.702C91.4949 401.234 93.7538 396.742 94.4699 391.889C96.719 376.493 82.5986 362.961 67.2047 365.219C57.263 366.67 50.4856 374.999 49.0308 384.96Z" fill="#444444"/>
<path d="M67.9601 411.401C80.1073 411.401 89.9545 400.92 89.9545 387.991C89.9545 375.062 80.1073 364.581 67.9601 364.581C55.813 364.581 45.9658 375.062 45.9658 387.991C45.9658 400.92 55.813 411.401 67.9601 411.401Z" fill="#444444"/>
<path d="M67.9601 399.225C73.9347 399.225 78.7781 393.952 78.7781 387.447C78.7781 380.941 73.9347 375.668 67.9601 375.668C61.9855 375.668 57.1421 380.941 57.1421 387.447C57.1421 393.952 61.9855 399.225 67.9601 399.225Z" fill="#AEAEAE"/>
<path d="M95.1994 316.564H91.6942C91.0874 316.564 90.5054 316.805 90.0764 317.234C89.6473 317.664 89.4062 318.246 89.4062 318.853V329.802H95.3635C96.1027 329.802 96.8312 329.624 97.4874 329.284V318.87C97.4896 318.568 97.4321 318.268 97.3182 317.989C97.2042 317.709 97.0361 317.455 96.8234 317.241C96.6107 317.026 96.3577 316.856 96.079 316.74C95.8003 316.624 95.5014 316.564 95.1994 316.564Z" fill="#444444"/>
<path d="M57.8414 345.829H47.0493V341.08H62.59C62.5843 342.337 62.0822 343.542 61.1929 344.432C60.3036 345.321 59.0991 345.823 57.8414 345.829Z" fill="#3E3D51"/>
<path d="M112.376 363.574L344.338 363.574C347.27 363.574 349.647 361.197 349.647 358.264V248.851C349.647 245.918 347.27 243.54 344.338 243.54L112.376 243.54C109.444 243.54 107.067 245.918 107.067 248.851V358.264C107.067 361.197 109.444 363.574 112.376 363.574Z" fill="url(#paint0_linear_4_1601)"/>
<path d="M341.182 358.674C341.651 358.675 342.116 358.583 342.549 358.403C342.983 358.224 343.377 357.961 343.709 357.63C344.041 357.298 344.304 356.904 344.484 356.471C344.664 356.037 344.756 355.573 344.756 355.103V252.016C344.756 251.068 344.38 250.158 343.709 249.488C343.039 248.817 342.13 248.441 341.182 248.441H254.353C253.515 248.441 252.711 248.774 252.118 249.366C251.526 249.959 251.193 250.763 251.193 251.601V355.514C251.193 356.352 251.526 357.156 252.118 357.748C252.711 358.341 253.515 358.674 254.353 358.674H341.182Z" fill="#A9A9A9"/>
<path d="M336.826 389.398H114.077C112.768 389.398 111.513 388.878 110.588 387.953C109.663 387.027 109.143 385.772 109.143 384.463V368.488C109.143 367.179 109.663 365.924 110.588 364.998C111.513 364.073 112.768 363.553 114.077 363.553H336.826V389.381V389.398Z" fill="#444444"/>
<path d="M248.94 386.307H335.065V367.055H248.94V386.307Z" fill="#AEAEAE"/>
<path d="M251.776 381.998H276.662V374.356H251.776V381.998Z" fill="#FF7685"/>
<path d="M251.78 381.998H266.794V374.356H251.78V381.998Z" fill="#FFAF95"/>
<path d="M304.622 381.998H329.509V374.356H304.622V381.998Z" fill="#FF7685"/>
<path d="M318.238 381.998H329.505V374.356H318.238V381.998Z" fill="#FFAF95"/>
<path d="M193.978 388.068C193.978 400.564 203.824 410.693 215.993 410.693C228.163 410.693 238.009 400.564 238.009 388.068C238.009 375.573 228.158 365.448 215.993 365.448C203.829 365.448 193.978 375.578 193.978 388.068Z" fill="#444444"/>
<path d="M197.383 388.068C197.383 400.158 201.005 410.757 212.592 411.383C212.971 411.383 218.523 411.146 218.907 411.146C231.055 411.146 241.355 400.546 241.355 388.051C241.355 375.556 229.168 363.967 217.016 363.967C204.864 363.967 197.383 375.577 197.383 388.068Z" fill="#444444"/>
<path d="M190.593 387.451C190.593 400.676 200.44 411.401 212.609 411.401C224.778 411.401 234.625 400.676 234.625 387.451C234.625 374.226 224.778 363.497 212.609 363.497C200.44 363.497 190.593 374.222 190.593 387.451Z" fill="#444444"/>
<path d="M201.773 387.451C201.773 393.953 206.617 399.229 212.591 399.229C218.566 399.229 223.405 393.953 223.405 387.451C223.405 380.949 218.562 375.672 212.591 375.672C206.621 375.672 201.773 380.944 201.773 387.451Z" fill="#AEAEAE"/>
<rect x="234.677" y="227.847" width="60.871" height="95.9889" fill="#C4C4C4"/>
<rect x="205.412" y="292.23" width="29.2649" height="31.6061" fill="#DFDFDF"/>
<rect x="199.218" y="176" width="93.1595" height="180.954" rx="8" fill="url(#paint1_linear_4_1601)" stroke="#474747" stroke-width="4"/>
<mask id="mask0_4_1601" style="mask-type:alpha" maskUnits="userSpaceOnUse" x="196" y="174" width="99" height="186">
<rect x="198.545" y="176.272" width="94.1545" height="180.896" rx="8" fill="#F6BF67" stroke="#474747" stroke-width="4"/>
</mask>
<g mask="url(#mask0_4_1601)">
<path d="M202.251 136.608L359.184 266.719" stroke="white" stroke-width="6"/>
<path d="M173.718 184.543L330.651 314.655" stroke="white" stroke-width="6"/>
<path d="M173.718 207.37L330.651 337.482" stroke="white" stroke-width="6"/>
<path d="M279.861 162.288L187.414 280.986" stroke="white" stroke-width="6"/>
<path d="M206.246 257.589L215.776 265.417C228.28 275.689 230.385 294.026 220.533 306.864L181.707 357.455" stroke="white" stroke-width="6"/>
<path d="M259.793 280.802L252.191 290.515C242.217 303.257 244.147 321.614 256.553 332.004L305.444 372.952" stroke="white" stroke-width="6"/>
</g>
<rect x="199.218" y="176" width="93.1595" height="180.954" rx="8" stroke="#474747" stroke-width="4"/>
<path d="M250.29 203.121L250.29 203.121C248.034 202.59 244.311 202.427 242.213 202.742C235.802 203.705 230.456 207.085 226.923 212.363M250.29 203.121L257.837 206.498C259.059 207.357 261.167 209.314 262.1 210.453C264.3 213.138 265.859 216.389 266.537 219.643L266.537 219.643C268.663 229.842 262.847 243.839 248.103 258.433C247.251 259.277 246.185 260.29 245.218 261.186C244.343 260.377 243.373 259.456 242.519 258.616L242.519 258.616C227.508 243.848 221.637 229.566 223.952 219.404C224.535 216.844 225.613 214.32 226.923 212.363M250.29 203.121C252.709 203.691 255.831 205.089 257.837 206.498L250.29 203.121ZM226.923 212.363L223.599 210.139L226.923 212.363ZM251.206 199.229L251.206 199.228L251.206 199.229Z" fill="#981A1F" stroke="#981A1F" stroke-width="8"/>
<ellipse cx="245.212" cy="223.75" rx="18.7295" ry="18.1442" fill="white"/>
<rect x="231.166" y="176.341" width="30.4355" height="8.19418" rx="2" fill="#474747"/>
<defs>
<linearGradient id="paint0_linear_4_1601" x1="228.357" y1="363.574" x2="134" y2="266" gradientUnits="userSpaceOnUse">
<stop stop-color="#C7C7C7"/>
<stop offset="1" stop-color="#E2E2E2"/>
</linearGradient>
<linearGradient id="paint1_linear_4_1601" x1="215" y1="188" x2="245.798" y2="358.954" gradientUnits="userSpaceOnUse">
<stop stop-color="#E8E8E8"/>
<stop offset="1" stop-color="#EEEEEE"/>
</linearGradient>
</defs>
</svg>
