<?xml version="1.0" encoding="utf-8"?>
<!-- Generator: Adobe Illustrator 24.3.0, SVG Export Plug-In . SVG Version: 6.00 Build 0)  -->
<svg version="1.1" id="Слой_1" xmlns="http://www.w3.org/2000/svg" xmlns:xlink="http://www.w3.org/1999/xlink" x="0px" y="0px"
	 viewBox="0 0 160 160" style="enable-background:new 0 0 160 160;" xml:space="preserve">
<style type="text/css">
	.st0{fill:#FFFFFF;}
</style>
<path class="st0" d="M9.07,86.81c-7.6-29.93,8.44-66.72,42.84-81.21C85.04-8.34,124,4.52,142.58,35.58
	c19.16,32.04,11.33,76.5-23.55,98.98c0.42,0.56,0.82,1.12,1.26,1.64c3.1,3.67,6.21,7.32,9.3,11c3.13,3.71,2.95,8.23-0.41,11.06
	c-3.32,2.8-7.83,2.18-10.98-1.5c-13.87-16.22-27.68-32.5-41.64-48.65c-5.26-6.08-10.76-11.97-16.33-17.77
	c-3.99-4.16-8.56-7.59-14.49-8.55c-6.31-1.02-11.52,1.08-15.63,5.86c-2.81,3.28-3.13,9.18-0.93,13.25
	c11.47,21.24,36.03,33.28,59.86,29.29c1.27-0.21,2,0.02,2.8,1.01c3.06,3.76,6.21,7.45,9.76,11.66c-5.05,0.9-9.58,2.1-14.18,2.45
	c-29.16,2.23-52.04-8.82-68.7-32.86c-5.35-7.71-7.27-16.15-4.7-25.13c3.28-11.44,11.78-17.66,22.98-19.98
	c11.04-2.29,20.88,1.21,29.21,8.48c5.06,4.42,9.7,9.38,14.2,14.39c9.23,10.28,18.24,20.76,27.34,31.16c0.43,0.49,0.85,0.97,1.5,1.71
	c2.37-1.69,4.88-3.19,7.05-5.07c18.73-16.19,25.99-36.56,19.39-60.44c-6.59-23.83-23.1-38.17-47.54-42.02
	c-30.44-4.79-59.68,16.47-65.29,46.81c-0.67,3.64-1.67,6.47-4.6,9c-4.16,3.6-6.83,8.43-8.53,13.72C9.58,85.61,9.35,86.11,9.07,86.81
	z"/>
</svg>
