<svg width="25" height="24" viewBox="0 0 25 24" fill="none" xmlns="http://www.w3.org/2000/svg">
<path fill-rule="evenodd" clip-rule="evenodd" d="M6.85963 15.467H4.76635L3.19665 9.47851C3.12215 9.20303 2.96395 8.9595 2.73125 8.84472C2.15052 8.55628 1.5106 8.32672 0.8125 8.21094V7.98038H4.1846C4.65 7.98038 4.99905 8.32672 5.05723 8.72895L5.87168 13.0487L7.96393 7.98038H9.99903L6.85963 15.467ZM11.1626 15.467H9.18564L10.8135 7.98038H12.7904L11.1626 15.467ZM15.3481 10.0544C15.4063 9.65115 15.7553 9.42059 16.1626 9.42059C16.8025 9.3627 17.4996 9.47848 18.0813 9.76593L18.4304 8.15402C17.8486 7.92346 17.2087 7.80769 16.628 7.80769C14.7092 7.80769 13.313 8.84469 13.313 10.2839C13.313 11.3788 14.302 11.9537 15.0001 12.3001C15.7553 12.6454 16.0462 12.876 15.988 13.2213C15.988 13.7393 15.4063 13.9699 14.8256 13.9699C14.1275 13.9699 13.4294 13.7972 12.7905 13.5087L12.4414 15.1216C13.1395 15.4091 13.8948 15.5249 14.5929 15.5249C16.7443 15.5818 18.0813 14.5457 18.0813 12.9907C18.0813 11.0325 15.3481 10.9177 15.3481 10.0544ZM25 15.467L23.4303 7.98038H21.7442C21.3952 7.98038 21.0461 8.21094 20.9298 8.55628L18.0231 15.467H20.0582L20.4644 14.3731H22.9649L23.1976 15.467H25ZM22.0351 9.99645L22.6158 12.818H20.988L22.0351 9.99645Z" fill="#E56455"/>
</svg>
