<?xml version="1.0" encoding="utf-8"?>
<!-- Generator: Adobe Illustrator 24.3.0, SVG Export Plug-In . SVG Version: 6.00 Build 0)  -->
<svg version="1.1" id="Слой_1" xmlns="http://www.w3.org/2000/svg" xmlns:xlink="http://www.w3.org/1999/xlink" x="0px" y="0px"
	 viewBox="0 0 41 38" style="enable-background:new 0 0 41 38;" xml:space="preserve">
<style type="text/css">
	.st0{fill:#E56455;}
</style>
<path class="st0" d="M31,0H10C4.5,0,0,4.5,0,10v18c0,5.5,4.5,10,10,10h21c5.5,0,10-4.5,10-10V10C41,4.5,36.5,0,31,0z M24,19.5l-4,4
	c-0.3,0.3-0.8,0.3-1.1,0c-0.3-0.3-0.3-0.8,0-1.1l3.5-3.5L19,15.5c-0.3-0.3-0.3-0.8,0-1.1c0.3-0.3,0.8-0.3,1.1,0l4,4
	C24.3,18.8,24.3,19.2,24,19.5z"/>
</svg>
