<svg width="40" height="50" viewBox="0 0 40 50" fill="none" xmlns="http://www.w3.org/2000/svg">
<g clip-path="url(#clip0_4_16264)">
<path d="M-2 7H3C4.10457 7 5 7.89543 5 9V35H-2V7Z" fill="#545453"/>
<path fill-rule="evenodd" clip-rule="evenodd" d="M7.49812 35C8.47768 32.651 10.796 31 13.5 31C16.2039 31 18.5222 32.651 19.5018 35H21C22.1045 35 23 35.8954 23 37C23 38.1046 22.1045 39 21 39H18.793C18.9278 38.5232 19 38.02 19 37.5C19 34.4624 16.5376 32 13.5 32C10.4624 32 8 34.4624 8 37.5C8 38.02 8.07217 38.5232 8.20703 39H-4.00005C-4.66801 39 -4.5281 38.6725 -4.31314 38.1694C-4.17263 37.8405 -4.00005 37.4366 -4.00005 37C-4.00005 36.5634 -4.17263 36.1595 -4.31314 35.8306C-4.5281 35.3275 -4.66801 35 -4.00005 35H7.49812Z" fill="#545453"/>
<path fill-rule="evenodd" clip-rule="evenodd" d="M18.5063 16H5V35H8.59971C9.51007 33.2192 11.3627 32 13.5 32C15.6373 32 17.4899 33.2192 18.4003 35H23V25.3482C23 25.1168 22.9732 24.8863 22.9203 24.6611L21.4266 18.3129C21.1077 16.9577 19.8985 16 18.5063 16Z" fill="#E56455"/>
<path d="M7 18H16.9008C17.8462 18 18.6624 18.662 18.8576 19.587L20 25H7V18Z" fill="#F3EFE1"/>
<path fill-rule="evenodd" clip-rule="evenodd" d="M13.5 42C15.9853 42 18 39.9853 18 37.5C18 35.0147 15.9853 33 13.5 33C11.0147 33 9 35.0147 9 37.5C9 39.9853 11.0147 42 13.5 42ZM13.5 40C14.8807 40 16 38.8807 16 37.5C16 36.1193 14.8807 35 13.5 35C12.1193 35 11 36.1193 11 37.5C11 38.8807 12.1193 40 13.5 40Z" fill="#545453"/>
<rect x="21" y="35" width="2" height="4" fill="#545453"/>
<rect x="18" y="20" width="2" height="5" fill="#545453"/>
</g>
<defs>
<clipPath id="clip0_4_16264">
<rect width="40" height="50" fill="white"/>
</clipPath>
</defs>
</svg>
