<svg width="24" height="24" viewBox="0 0 24 24" fill="none" xmlns="http://www.w3.org/2000/svg">
<path fill-rule="evenodd" clip-rule="evenodd" d="M7.31305 3.76882C10.4006 3.42374 13.592 3.42374 16.6795 3.76882C18.5059 3.97294 19.9808 5.41159 20.1957 7.24855C20.5649 10.4055 20.5649 13.5947 20.1957 16.7516C19.9808 18.5885 18.5059 20.0272 16.6796 20.2313C13.592 20.5764 10.4006 20.5764 7.31305 20.2313C5.48667 20.0272 4.01177 18.5885 3.79692 16.7516C3.42769 13.5947 3.42769 10.4055 3.79692 7.24855C4.01177 5.41159 5.48667 3.97294 7.31305 3.76882Z" fill="#F3EFE1"/>
<path fill-rule="evenodd" clip-rule="evenodd" d="M18.0303 7.96967C18.3232 8.26256 18.3232 8.73744 18.0303 9.03033L11.0303 16.0303C10.7374 16.3232 10.2626 16.3232 9.96967 16.0303L5.96967 12.0303C5.67678 11.7374 5.67678 11.2626 5.96967 10.9697C6.26256 10.6768 6.73744 10.6768 7.03033 10.9697L10.5 14.4393L16.9697 7.96967C17.2626 7.67678 17.7374 7.67678 18.0303 7.96967Z" fill="#E56455"/>
</svg>
