<svg width="30" height="30" viewBox="0 0 30 30" fill="none" xmlns="http://www.w3.org/2000/svg">
<rect x="7" y="10" width="16.8235" height="0.647059" fill="#AD1F25"/>
<rect x="7" y="10.9896" width="16.8235" height="0.989619" fill="white"/>
<rect x="7" y="11.2941" width="16.8235" height="0.647059" fill="#AD1F25"/>
<rect x="7" y="12.5882" width="16.8235" height="0.647059" fill="#AD1F25"/>
<rect x="7" y="14.6055" width="16.8235" height="0.989619" fill="white"/>
<rect x="7" y="13.8824" width="16.8235" height="0.647059" fill="#AD1F25"/>
<rect x="7" y="16.5848" width="16.8235" height="0.989619" fill="white"/>
<rect x="7" y="18.9066" width="16.8235" height="0.989619" fill="white"/>
<rect x="7" y="15.1765" width="16.8235" height="0.647059" fill="#AD1F25"/>
<rect x="7" y="16.4706" width="16.8235" height="0.647059" fill="#AD1F25"/>
<rect x="7" y="20.3529" width="16.8235" height="0.647059" fill="#AD1F25"/>
<rect x="7" y="19.0588" width="16.8235" height="0.647059" fill="#AD1F25"/>
<rect x="7" y="17.7647" width="16.8235" height="0.647059" fill="#AD1F25"/>
<rect x="7" y="10" width="7.76471" height="5.82353" fill="#545453"/>
<path d="M7.86807 10.4188L7.95255 10.6667H8.22593L8.00476 10.82L8.08924 11.068L7.86807 10.9147L7.6469 11.068L7.73138 10.82L7.51021 10.6667H7.78359L7.86807 10.4188Z" fill="white"/>
<path d="M8.99664 10.4185L9.08112 10.6665L9.3545 10.6665L9.13333 10.8198L9.21781 11.0678L8.99664 10.9145L8.77547 11.0678L8.85995 10.8198L8.63878 10.6665L8.91216 10.6665L8.99664 10.4185Z" fill="white"/>
<path d="M10.1252 10.4185L10.2097 10.6665L10.4831 10.6665L10.2619 10.8198L10.3464 11.0678L10.1252 10.9145L9.90407 11.0678L9.98855 10.8198L9.76738 10.6665L10.0408 10.6665L10.1252 10.4185Z" fill="white"/>
<path d="M11.2545 10.4185L11.339 10.6665L11.6124 10.6665L11.3912 10.8198L11.4757 11.0678L11.2545 10.9145L11.0333 11.0678L11.1178 10.8198L10.8967 10.6665L11.17 10.6665L11.2545 10.4185Z" fill="white"/>
<path d="M12.3831 10.4185L12.4676 10.6665L12.741 10.6665L12.5198 10.8198L12.6043 11.0678L12.3831 10.9145L12.1619 11.0678L12.2464 10.8198L12.0253 10.6665L12.2986 10.6665L12.3831 10.4185Z" fill="white"/>
<path d="M13.5119 10.4185L13.5964 10.6665L13.8698 10.6665L13.6486 10.8198L13.7331 11.0678L13.5119 10.9145L13.2908 11.0678L13.3753 10.8198L13.1541 10.6665L13.4275 10.6665L13.5119 10.4185Z" fill="white"/>
<path d="M7.86807 12.572L7.95255 12.8199L8.22593 12.8199L8.00476 12.9732L8.08924 13.2212L7.86807 13.0679L7.6469 13.2212L7.73138 12.9732L7.51021 12.8199L7.78359 12.8199L7.86807 12.572Z" fill="white"/>
<path d="M8.99664 12.572L9.08112 12.8199H9.3545L9.13333 12.9732L9.21781 13.2212L8.99664 13.0679L8.77547 13.2212L8.85995 12.9732L8.63878 12.8199H8.91216L8.99664 12.572Z" fill="white"/>
<path d="M10.1252 12.572L10.2097 12.8199H10.4831L10.2619 12.9732L10.3464 13.2212L10.1252 13.0679L9.90407 13.2212L9.98855 12.9732L9.76738 12.8199H10.0408L10.1252 12.572Z" fill="white"/>
<path d="M11.2545 12.572L11.339 12.8199H11.6124L11.3912 12.9732L11.4757 13.2212L11.2545 13.0679L11.0333 13.2212L11.1178 12.9732L10.8967 12.8199H11.17L11.2545 12.572Z" fill="white"/>
<path d="M12.3831 12.572L12.4676 12.8199H12.741L12.5198 12.9732L12.6043 13.2212L12.3831 13.0679L12.1619 13.2212L12.2464 12.9732L12.0253 12.8199H12.2986L12.3831 12.572Z" fill="white"/>
<path d="M13.5119 12.572L13.5964 12.8199H13.8698L13.6486 12.9732L13.7331 13.2212L13.5119 13.0679L13.2908 13.2212L13.3753 12.9732L13.1541 12.8199H13.4275L13.5119 12.572Z" fill="white"/>
<path d="M7.86807 14.7252L7.95255 14.9732H8.22593L8.00476 15.1264L8.08924 15.3744L7.86807 15.2212L7.6469 15.3744L7.73138 15.1264L7.51021 14.9732H7.78359L7.86807 14.7252Z" fill="white"/>
<path d="M8.99664 14.725L9.08112 14.973H9.3545L9.13333 15.1263L9.21781 15.3742L8.99664 15.221L8.77547 15.3742L8.85995 15.1263L8.63878 14.973H8.91216L8.99664 14.725Z" fill="white"/>
<path d="M10.1252 14.725L10.2097 14.973H10.4831L10.2619 15.1263L10.3464 15.3742L10.1252 15.221L9.90407 15.3742L9.98855 15.1263L9.76738 14.973H10.0408L10.1252 14.725Z" fill="white"/>
<path d="M11.2545 14.725L11.339 14.973H11.6124L11.3912 15.1263L11.4757 15.3742L11.2545 15.221L11.0333 15.3742L11.1178 15.1263L10.8967 14.973H11.17L11.2545 14.725Z" fill="white"/>
<path d="M12.3831 14.725L12.4676 14.973H12.741L12.5198 15.1263L12.6043 15.3742L12.3831 15.221L12.1619 15.3742L12.2464 15.1263L12.0253 14.973H12.2986L12.3831 14.725Z" fill="white"/>
<path d="M13.5119 14.725L13.5964 14.973H13.8698L13.6486 15.1263L13.7331 15.3742L13.5119 15.221L13.2908 15.3742L13.3753 15.1263L13.1541 14.973H13.4275L13.5119 14.725Z" fill="white"/>
<path d="M8.24405 11.4953L8.32853 11.7433L8.60191 11.7433L8.38074 11.8965L8.46522 12.1445L8.24405 11.9912L8.02287 12.1445L8.10735 11.8965L7.88618 11.7433L8.15957 11.7433L8.24405 11.4953Z" fill="white"/>
<path d="M9.37289 11.4953L9.45737 11.7433H9.73075L9.50958 11.8965L9.59406 12.1445L9.37289 11.9912L9.15172 12.1445L9.2362 11.8965L9.01503 11.7433H9.28841L9.37289 11.4953Z" fill="white"/>
<path d="M10.5016 11.4953L10.586 11.7433H10.8594L10.6382 11.8965L10.7227 12.1445L10.5016 11.9912L10.2804 12.1445L10.3649 11.8965L10.1437 11.7433H10.4171L10.5016 11.4953Z" fill="white"/>
<path d="M11.6305 11.4953L11.715 11.7433H11.9884L11.7672 11.8965L11.8517 12.1445L11.6305 11.9912L11.4093 12.1445L11.4938 11.8965L11.2726 11.7433H11.546L11.6305 11.4953Z" fill="white"/>
<path d="M12.7594 11.4953L12.8438 11.7433H13.1172L12.8961 11.8965L12.9805 12.1445L12.7594 11.9912L12.5382 12.1445L12.6227 11.8965L12.4015 11.7433H12.6749L12.7594 11.4953Z" fill="white"/>
<path d="M13.8884 11.4953L13.9728 11.7433H14.2462L14.0251 11.8965L14.1095 12.1445L13.8884 11.9912L13.6672 12.1445L13.7517 11.8965L13.5305 11.7433H13.8039L13.8884 11.4953Z" fill="white"/>
<path d="M8.24405 13.6485L8.32853 13.8965H8.60191L8.38074 14.0498L8.46522 14.2977L8.24405 14.1445L8.02287 14.2977L8.10735 14.0498L7.88618 13.8965H8.15957L8.24405 13.6485Z" fill="white"/>
<path d="M9.37289 13.6486L9.45737 13.8966H9.73075L9.50958 14.0498L9.59406 14.2978L9.37289 14.1445L9.15172 14.2978L9.2362 14.0498L9.01503 13.8966H9.28841L9.37289 13.6486Z" fill="white"/>
<path d="M10.5016 13.6486L10.586 13.8966H10.8594L10.6382 14.0498L10.7227 14.2978L10.5016 14.1445L10.2804 14.2978L10.3649 14.0498L10.1437 13.8966H10.4171L10.5016 13.6486Z" fill="white"/>
<path d="M11.6305 13.6486L11.715 13.8966H11.9884L11.7672 14.0498L11.8517 14.2978L11.6305 14.1445L11.4093 14.2978L11.4938 14.0498L11.2726 13.8966H11.546L11.6305 13.6486Z" fill="white"/>
<path d="M12.7594 13.6486L12.8438 13.8966H13.1172L12.8961 14.0498L12.9805 14.2978L12.7594 14.1445L12.5382 14.2978L12.6227 14.0498L12.4015 13.8966H12.6749L12.7594 13.6486Z" fill="white"/>
<path d="M13.8884 13.6486L13.9728 13.8966H14.2462L14.0251 14.0498L14.1095 14.2978L13.8884 14.1445L13.6672 14.2978L13.7517 14.0498L13.5305 13.8966H13.8039L13.8884 13.6486Z" fill="white"/>
</svg>
